<?xml version="1.0" encoding="utf-8"?>
<!-- Generator: Adobe Illustrator 20.1.0, SVG Export Plug-In . SVG Version: 6.00 Build 0)  -->
<svg version="1.1" id="Layer_1" xmlns="http://www.w3.org/2000/svg" xmlns:xlink="http://www.w3.org/1999/xlink" x="0px" y="0px"
	 viewBox="0 0 1012 1000" style="enable-background:new 0 0 1012 1000;" xml:space="preserve">
<style type="text/css">
	.st0{fill:#4B7C87;}
</style>
<g>
	<path class="st0" d="M984.2,844.5L717.5,577.8c0,0,0,0-6.3,0c31.7-63.5,50.8-127,50.8-196.8C762,171.4,590.6,0,381.1,0
		S0,171.4,0,380.9s171.4,380.9,380.9,380.9c69.8,0,139.7-19,196.8-57.1l0,0l266.6,266.6c38.1,38.1,95.2,38.1,133.3,0
		C1022.2,939.7,1022.2,882.6,984.2,844.5z M127,380.9C127,241.2,241.3,127,380.9,127c139.7,0,253.9,114.3,253.9,253.9
		c0,139.7-114.3,254-253.9,254S127,520.7,127,380.9z"/>
</g>
</svg>
