<svg id="Layer_1" data-name="Layer 1" xmlns="http://www.w3.org/2000/svg" viewBox="0 0 397.13 397.08"><defs><style>.cls-1{fill:#2b4452;}.cls-2{fill:#3a646f;}.cls-3{fill:#364352;}.cls-4{fill:#f5d057;}.cls-5{fill:#f8ae41;}.cls-6{fill:#ed9522;}.cls-7{fill:#d17b28;}.cls-8{fill:#f4c354;}.cls-9{fill:#e1b654;}.cls-10{fill:#e9bb52;}.cls-11{fill:#e9bc53;}.cls-12{fill:#42666e;}.cls-13{fill:#42676f;}</style></defs><title>spark_logo</title><path class="cls-1" d="M200,398.69C91.05,399-.94,309.11,1.61,195.14,4,90.12,91.16-1.15,205.87,1.68,310.39,4.25,401.62,91.24,398.61,206.13,395.87,310.94,309.65,398.74,200,398.69Z" transform="translate(-1.56 -1.61)"/><path class="cls-2" d="M377.27,200.17c0,98.09-79.28,177.17-177.59,177.14-97.86,0-176.74-79.52-176.68-178.05C23.07,101.8,102.71,23,201.06,23,298.09,23.1,377.27,102.7,377.27,200.17Z" transform="translate(-1.56 -1.61)"/><path class="cls-3" d="M274,120.47A80,80,0,0,1,259.79,164c-.89,1.28-3,2.64-1.74,4.3,1,1.26,2.91,0,4.39-.24,4.89-.84,9.78-1.76,14.19-4.2,1.83-1,3.7-1.87,5.66-.53,2.29,1.56,2.08,4,1.81,6.34a85,85,0,0,1-10.4,31.59c-6.39,11.48-14.27,21.85-24.93,29.66-18.11,13.27-37.94,16-58.95,8-4.41-1.67-7.2-1.13-10.69,2Q155.85,262,132,282.39c-9.95,8.56-22.62,4.92-25.64-7.12-1.26-5,.15-9.44,3.55-13.33,14.46-16.56,28.83-33.19,43.37-49.68,2.27-2.57,2.63-4.79,1.39-7.95-16.62-42.33,16-82.77,55.33-85.62,12.65-.91,25.35-1.35,37.91-3.41a68.1,68.1,0,0,0,16.43-4.91c7-3.08,9.29-1.7,9.62,5.9C274.06,117.68,274,119.08,274,120.47Z" transform="translate(-1.56 -1.61)"/><path class="cls-3" d="M133.06,211.82a7.51,7.51,0,0,1-7.75-7.94,8,8,0,0,1,8-7.83,8.11,8.11,0,0,1,7.76,8.15C141,208.83,137.77,211.87,133.06,211.82Z" transform="translate(-1.56 -1.61)"/><path class="cls-3" d="M248.17,255.33c.76,7.35-4,13-11.64,13.74-7,.7-12.31-3.72-13.18-10.93a12.23,12.23,0,0,1,10.93-13.9A12.8,12.8,0,0,1,248.17,255.33Z" transform="translate(-1.56 -1.61)"/><path class="cls-3" d="M139.77,184.26c-.37,2.42-1.72,3.84-4.2,3.66A3.51,3.51,0,0,1,132,184c.08-2.54,1.75-3.79,4.13-3.65S139.65,181.93,139.77,184.26Z" transform="translate(-1.56 -1.61)"/><path class="cls-3" d="M208.46,257.57c.06,4-1.64,6.54-5.57,6.93-3.63.36-6.06-1.55-6.58-5.16-.56-4,1.71-6.37,5.46-6.78C205.31,252.17,207.65,254.1,208.46,257.57Z" transform="translate(-1.56 -1.61)"/><path class="cls-4" d="M158.58,189.62c-3.73-20.71,4.92-37.34,20.6-50.53,9.71-8.17,21.06-12.07,33.65-12.89,12.82-.83,25.67-1.36,38.36-3.61a75.46,75.46,0,0,0,9-2.15c6.35-2,6.28-2,5.75,4.45-1.35,16.54-8.23,30.6-19.12,42.88-.72.81-1.46,1.6-2.21,2.39-1.45,1.52-2.68,3.08-1.5,5.34,1,2,2.86,2.09,4.79,2a122,122,0,0,0,23-3.22c1-.25,2.11-.33,3.17-.49.42,2.44-.92,4.58-2.19,6.12-6.64,8.12-13.23,16.36-22.3,22-3.91-.3-6.55,1.5-8.41,4.85-.7,1.26-1.16,2.85-2.87,3.3-8.47,5-17.77,7.69-27.36,9.44-1.73.32-4.16,1.34-4.69-1.85,3.22-2.91,6.49-5.75,9.64-8.73,5.78-5.47,6.53-10.77,2.17-17.39a58.59,58.59,0,0,0-15.89-16.12c-7.09-4.87-12.52-4.13-18.44,2.17-6.24,6.65-12.83,15.36-19.5,21.63C159.11,198.68,159.4,194.17,158.58,189.62Z" transform="translate(-1.56 -1.61)"/><path class="cls-5" d="M267.53,181.65c2.07-2.69,4.32-5.24,6.49-7.86,1.69.66,1.17,2.13.87,3.15-7,23.8-19.2,43.68-42.6,54.43-12.63,5.8-25.86,5.45-38.94.82a21.23,21.23,0,0,1-2.5-1.36L206.2,217.7c9.94.66,18.82-2.7,27.4-7.19,1.37-.72,2.66-1.59,4-2.39C237.59,208.11,260,191.55,267.53,181.65Z" transform="translate(-1.56 -1.61)"/><path class="cls-6" d="M115.14,276c-2.38-3.33-1.61-6.4.87-9.24q21.17-24.24,42.36-48.47c1.6-1.84,2.58-2.14,4.16.07,2.05,2.88,4.48,5.49,6.74,8.21,0,2.37-1.39,4-3,5.54Q145.69,252.78,125,273.38C122.26,276.08,119.32,278.53,115.14,276Z" transform="translate(-1.56 -1.61)"/><path class="cls-7" d="M115.14,276c4-.36,6.82-2.69,9.49-5.37q19.88-19.89,39.79-39.75c1.53-1.52,3.23-2.88,4.85-4.31,8.19,5.77,8.17,5.75.93,12.07q-21.47,18.74-42.9,37.53C122.33,280.5,119.17,280.43,115.14,276Z" transform="translate(-1.56 -1.61)"/><path class="cls-5" d="M189.54,220.85c-.49,2.33-3.19,3.34-5,5.13-1.52,1.55-2.81.31-4-.59a53.82,53.82,0,0,1-12.88-13.14c-1-1.49-1.81-2.75-.17-4.41,1.44-1.47,2.45-3,5-1.73,3.17,1.54,6.59,2.58,9.89,3.86C185.82,211.31,189.48,216.58,189.54,220.85Z" transform="translate(-1.56 -1.61)"/><path class="cls-8" d="M196.21,215.6c-3.43-8.82-6.66-17.33-10.06-25.76-1.4-3.49,1.49-4.47,3.44-7.14,3.6,9.78,7,18.81,10.23,27.92C200.84,213.5,197.87,213.93,196.21,215.6Z" transform="translate(-1.56 -1.61)"/><path class="cls-7" d="M198.13,183.46a36.45,36.45,0,0,1,13.94,13.31c1.63,2.73-1.61,8.71-4.67,9.08-1.43.17-1.33-1.06-1.6-1.77C203.2,197.22,200.67,190.33,198.13,183.46Z" transform="translate(-1.56 -1.61)"/><path class="cls-9" d="M182.32,201.67c-2.67-1.28-5.41-.85-6.14-3.32-.23-.77,2.14-3.33,2.72-3.15C181.52,196,181.15,198.78,182.32,201.67Z" transform="translate(-1.56 -1.61)"/><path class="cls-10" d="M135.76,204c-.2,1.45-.93,2.46-2.51,2.48a2.32,2.32,0,0,1-2.54-2.42,2.38,2.38,0,0,1,2.46-2.55A2.54,2.54,0,0,1,135.76,204Z" transform="translate(-1.56 -1.61)"/><path class="cls-11" d="M239.77,256.36c-.25,2.46-1.39,4.16-3.82,4.28a3.94,3.94,0,1,1-.51-7.86A4.08,4.08,0,0,1,239.77,256.36Z" transform="translate(-1.56 -1.61)"/><path class="cls-12" d="M136.7,184.2a.81.81,0,0,1-.86.74.8.8,0,0,1-.79-1.08.77.77,0,0,1,1-.59A.83.83,0,0,1,136.7,184.2Z" transform="translate(-1.56 -1.61)"/><path class="cls-13" d="M203.64,258.36a1.28,1.28,0,0,1-1.08,1.42,1.26,1.26,0,0,1-1.57-1.42,1.23,1.23,0,0,1,1.33-1.21A1.3,1.3,0,0,1,203.64,258.36Z" transform="translate(-1.56 -1.61)"/></svg>