<?xml version="1.0" encoding="utf-8"?>
<!-- Generator: Adobe Illustrator 20.1.0, SVG Export Plug-In . SVG Version: 6.00 Build 0)  -->
<svg version="1.1" id="Layer_1" xmlns="http://www.w3.org/2000/svg" xmlns:xlink="http://www.w3.org/1999/xlink" x="0px" y="0px"
	 viewBox="0 0 275.6 314.4" style="enable-background:new 0 0 275.6 314.4;" xml:space="preserve">
<style type="text/css">
	.st0{opacity:0.4;fill:#D98145;enable-background:new    ;}
	.st1{opacity:0.2;fill:#D98145;enable-background:new    ;}
	.st2{opacity:0.6;fill:#D98145;enable-background:new    ;}
	.st3{fill:#54463D;}
	.st4{fill:#44372D;}
	.st5{fill:#665447;}
	.st6{fill:#AD8B6C;}
	.st7{fill:none;stroke:#BC987A;stroke-width:3;stroke-linecap:round;stroke-miterlimit:10;}
	.st8{fill:#6E5945;}
	.st9{fill:#564537;}
	.st10{fill:#CEA57C;}
	.st11{fill:none;stroke:#E5B88F;stroke-width:3;stroke-linecap:round;stroke-miterlimit:10;}
	.st12{fill:none;stroke:#564537;stroke-width:3;stroke-linecap:round;stroke-miterlimit:10;}
	.st13{fill:#E83C3C;}
	.st14{fill:#F59E37;}
	.st15{fill:#F4B166;}
</style>
<g id="Layer_3">
	<circle class="st0" cx="137.8" cy="137.8" r="105.1"/>
	<circle class="st1" cx="137.8" cy="137.8" r="137.8"/>
	<circle class="st2" cx="137.8" cy="137.8" r="70.8"/>
</g>
<g id="Layer_6_copy">
	<path class="st3" d="M213.8,207.7l-157,65l-28.1-67.9l157-65c18.8-7.8,40.3,1.1,48,19.9l0,0C241.5,178.4,232.5,199.9,213.8,207.7z"
		/>
	
		<ellipse transform="matrix(0.9239 -0.3827 0.3827 0.9239 -88.1046 34.5137)" class="st4" cx="42.7" cy="238.7" rx="36.8" ry="36.8"/>
	
		<ellipse transform="matrix(0.9239 -0.3827 0.3827 0.9239 -65.8736 67.8104)" class="st5" cx="137.5" cy="199.5" rx="36.8" ry="36.8"/>
	
		<ellipse transform="matrix(0.9239 -0.3827 0.3827 0.9239 -88.1046 34.5137)" class="st6" cx="42.7" cy="238.7" rx="30.2" ry="30.2"/>
	<path class="st7" d="M22.8,248.7c-2.8-5.6-3.2-12.3-0.7-18.5c2.6-6.2,7.6-10.6,13.4-12.6"/>
	<path class="st7" d="M63.3,247.3c-4.7,11.4-17.7,16.8-29.1,12.1"/>
	<path class="st7" d="M51.3,218.2c7.4,3.1,12.3,9.7,13.5,17"/>
	
		<ellipse transform="matrix(0.3827 -0.9239 0.9239 0.3827 -194.2184 186.8322)" class="st7" cx="42.7" cy="238.8" rx="14.8" ry="14.8"/>
	
		<ellipse transform="matrix(0.3827 -0.9239 0.9239 0.3827 -194.2184 186.8322)" class="st7" cx="42.7" cy="238.8" rx="7.1" ry="7.1"/>
</g>
<g id="Layer_6_copy_3">
	<path class="st5" d="M60.6,207.5l157.5,65.2l28.1-67.9L88.7,139.6c-18.8-7.8-40.3,1.1-48,19.9l0,0
		C32.9,178.2,41.8,199.7,60.6,207.5z"/>
	
		<ellipse transform="matrix(0.3827 -0.9239 0.9239 0.3827 -77.2061 361.8431)" class="st4" cx="232.2" cy="238.7" rx="36.8" ry="36.8"/>
	
		<ellipse transform="matrix(0.3827 -0.9239 0.9239 0.3827 -77.2061 361.8431)" class="st6" cx="232.2" cy="238.7" rx="30.2" ry="30.2"/>
	<path class="st7" d="M252.1,248.7c2.8-5.6,3.2-12.3,0.7-18.5c-2.6-6.2-7.6-10.6-13.4-12.6"/>
	<path class="st7" d="M211.6,247.3c4.7,11.4,17.7,16.8,29.1,12.1"/>
	<path class="st7" d="M223.6,218.2c-7.4,3.1-12.3,9.7-13.5,17"/>
	
		<ellipse transform="matrix(0.9239 -0.3827 0.3827 0.9239 -73.6698 107.0315)" class="st7" cx="232.2" cy="238.7" rx="14.8" ry="14.8"/>
	
		<ellipse transform="matrix(0.9239 -0.3827 0.3827 0.9239 -73.6698 107.0315)" class="st7" cx="232.2" cy="238.7" rx="7.1" ry="7.1"/>
</g>
<g id="Layer_6_copy_2">
	<rect x="100.7" y="199.4" class="st8" width="73.5" height="78.2"/>
	<circle class="st9" cx="137.4" cy="277.6" r="36.8"/>
	<circle class="st8" cx="137.4" cy="199.3" r="36.8"/>
	<circle class="st10" cx="137.4" cy="277.6" r="30.2"/>
	<path class="st11" d="M120.6,292.2c4.1,4.7,10.1,7.7,16.8,7.7c6.7,0,12.7-2.9,16.8-7.6"/>
	<path class="st11" d="M137.4,255.3c-12.3,0-22.3,10-22.3,22.3"/>
	<path class="st11" d="M159.7,277.6c0-8-4.2-15-10.6-19"/>
	<circle class="st11" cx="137.4" cy="277.6" r="14.8"/>
	<circle class="st11" cx="137.4" cy="277.6" r="7.1"/>
	<line class="st12" x1="130.4" y1="220.6" x2="130.4" y2="209.9"/>
	<line class="st12" x1="130.4" y1="236.5" x2="130.4" y2="226.7"/>
	<line class="st12" x1="119.8" y1="228.1" x2="119.8" y2="210.9"/>
	<line class="st12" x1="119.8" y1="238" x2="119.8" y2="234.9"/>
	<line class="st12" x1="108.1" y1="237.7" x2="108.1" y2="227"/>
</g>
<g id="Layer_5">
	<path class="st13" d="M215.3,161.6c0,42.8-34.7,59-77.5,59s-77.5-16.2-77.5-59S137.8,0,137.8,0S215.3,118.8,215.3,161.6z"/>
	<path class="st14" d="M190.2,172.2c0,29-23.5,39.9-52.4,39.9c-29,0-52.4-11-52.4-39.9s52.4-109.4,52.4-109.4
		S190.2,143.3,190.2,172.2z"/>
	<path class="st15" d="M171.6,185.8c0,19.1-15.5,26.3-34.6,26.3s-34.6-7.2-34.6-26.3c0-19.1,34.6-72.1,34.6-72.1
		S171.6,166.7,171.6,185.8z"/>
</g>
</svg>
