<?xml version="1.0" encoding="utf-8"?>
<!-- Generator: Adobe Illustrator 20.1.0, SVG Export Plug-In . SVG Version: 6.00 Build 0)  -->
<svg version="1.1" xmlns="http://www.w3.org/2000/svg" xmlns:xlink="http://www.w3.org/1999/xlink" x="0px" y="0px"
	 viewBox="0 0 800 800" style="enable-background:new 0 0 800 800;" xml:space="preserve">
<style type="text/css">
	.st0{opacity:0.4;fill:#D98145;}
	.st1{opacity:0.2;fill:#D98145;}
	.st2{opacity:0.6;fill:#D98145;}
	.st3{fill:#54463D;}
	.st4{fill:#44372D;}
	.st5{fill:#665447;}
	.st6{fill:#AD8B6C;}
	.st7{fill:none;stroke:#BC987A;stroke-width:3;stroke-linecap:round;stroke-miterlimit:10;}
	.st8{fill:#6E5945;}
	.st9{fill:#564537;}
	.st10{fill:#CEA57C;}
	.st11{fill:none;stroke:#E5B88F;stroke-width:3;stroke-linecap:round;stroke-miterlimit:10;}
	.st12{fill:none;stroke:#564537;stroke-width:3;stroke-linecap:round;stroke-miterlimit:10;}
	.st13{fill:#E83C3C;}
	.st14{fill:#F59E37;}
	.st15{fill:#F4B166;}
</style>
<g id="Layer_3">
	<circle class="st0" cx="405.3" cy="344.8" r="105.1"/>
	<circle class="st1" cx="405.3" cy="344.8" r="137.8"/>
	<circle class="st2" cx="405.3" cy="344.8" r="70.8"/>
</g>
<g id="Layer_6_copy">
	<path class="st3" d="M481.3,414.7l-157,65l-28.1-67.9l157-65c18.8-7.8,40.3,1.1,48,19.9l0,0C509,385.4,500,406.9,481.3,414.7z"/>
	
		<ellipse transform="matrix(0.9239 -0.3827 0.3827 0.9239 -146.9612 152.6496)" class="st4" cx="310.2" cy="445.7" rx="36.8" ry="36.8"/>
	
		<ellipse transform="matrix(0.9239 -0.3827 0.3827 0.9239 -124.7342 185.9146)" class="st5" cx="405" cy="406.5" rx="36.8" ry="36.8"/>
	
		<ellipse transform="matrix(0.9239 -0.3827 0.3827 0.9239 -146.9612 152.6496)" class="st6" cx="310.2" cy="445.7" rx="30.2" ry="30.2"/>
	<path class="st7" d="M290.3,455.7c-2.8-5.6-3.2-12.3-0.7-18.5c2.6-6.2,7.6-10.6,13.4-12.6"/>
	<path class="st7" d="M330.8,454.3c-4.7,11.4-17.7,16.8-29.1,12.1"/>
	<path class="st7" d="M318.8,425.2c7.4,3.1,12.3,9.7,13.5,17"/>
	
		<ellipse transform="matrix(0.3827 -0.9239 0.9239 0.3827 -220.2968 561.7759)" class="st7" cx="310.2" cy="445.7" rx="14.8" ry="14.8"/>
	
		<ellipse transform="matrix(0.3827 -0.9239 0.9239 0.3827 -220.2968 561.7759)" class="st7" cx="310.2" cy="445.7" rx="7.1" ry="7.1"/>
</g>
<g id="Layer_6_copy_3">
	<path class="st5" d="M328.1,414.5l157.5,65.2l28.1-67.9l-157.5-65.2c-18.8-7.8-40.3,1.1-48,19.9l0,0
		C300.4,385.2,309.3,406.7,328.1,414.5z"/>
	
		<ellipse transform="matrix(0.3827 -0.9239 0.9239 0.3827 -103.3501 736.799)" class="st4" cx="499.7" cy="445.7" rx="36.8" ry="36.8"/>
	
		<ellipse transform="matrix(0.3827 -0.9239 0.9239 0.3827 -103.3501 736.799)" class="st6" cx="499.7" cy="445.7" rx="30.2" ry="30.2"/>
	<path class="st7" d="M519.6,455.7c2.8-5.6,3.2-12.3,0.7-18.5c-2.6-6.2-7.6-10.6-13.4-12.6"/>
	<path class="st7" d="M479.1,454.3c4.7,11.4,17.7,16.8,29.1,12.1"/>
	<path class="st7" d="M491.1,425.2c-7.4,3.1-12.3,9.7-13.5,17"/>
	
		<ellipse transform="matrix(0.9239 -0.3827 0.3827 0.9239 -132.5406 225.1465)" class="st7" cx="499.7" cy="445.7" rx="14.8" ry="14.8"/>
	
		<ellipse transform="matrix(0.9239 -0.3827 0.3827 0.9239 -132.5406 225.1465)" class="st7" cx="499.7" cy="445.7" rx="7.1" ry="7.1"/>
</g>
<g id="Layer_6_copy_2">
	
		<rect x="365.8" y="408.7" transform="matrix(5.883655e-11 -1 1 5.883655e-11 -40.5273 850.3943)" class="st8" width="78.2" height="73.5"/>
	<circle class="st9" cx="404.9" cy="484.6" r="36.8"/>
	<circle class="st8" cx="404.9" cy="406.3" r="36.8"/>
	<circle class="st10" cx="404.9" cy="484.6" r="30.2"/>
	<path class="st11" d="M388.1,499.2c4.1,4.7,10.1,7.7,16.8,7.7c6.7,0,12.7-2.9,16.8-7.6"/>
	<path class="st11" d="M404.9,462.3c-12.3,0-22.3,10-22.3,22.3"/>
	<path class="st11" d="M427.2,484.6c0-8-4.2-15-10.6-19"/>
	<circle class="st11" cx="404.9" cy="484.6" r="14.8"/>
	<circle class="st11" cx="404.9" cy="484.6" r="7.1"/>
	<line class="st12" x1="397.9" y1="427.6" x2="397.9" y2="416.9"/>
	<line class="st12" x1="397.9" y1="443.5" x2="397.9" y2="433.7"/>
	<line class="st12" x1="387.3" y1="435.1" x2="387.3" y2="417.9"/>
	<line class="st12" x1="387.3" y1="445" x2="387.3" y2="441.9"/>
	<line class="st12" x1="375.6" y1="444.7" x2="375.6" y2="434"/>
</g>
<g id="Layer_5">
	<path class="st13" d="M482.8,368.6c0,42.8-34.7,59-77.5,59s-77.5-16.2-77.5-59S405.3,207,405.3,207S482.8,325.8,482.8,368.6z"/>
	<path class="st14" d="M457.7,379.2c0,29-23.5,39.9-52.4,39.9c-29,0-52.4-11-52.4-39.9s52.4-109.4,52.4-109.4
		S457.7,350.3,457.7,379.2z"/>
	<path class="st15" d="M439.1,392.8c0,19.1-15.5,26.3-34.6,26.3c-19.1,0-34.6-7.2-34.6-26.3c0-19.1,34.6-72.1,34.6-72.1
		S439.1,373.7,439.1,392.8z"/>
</g>
<g id="Layer_9">
	<g>
		<path class="st13" d="M300,538.7c-3.8,0-6.3,1.4-6.3,4.1c0,10,31.7,4.3,31.7,26c0,12.3-10.8,18.6-24.3,18.6
			c-10.1,0-20.6-3.7-27.8-9.6l6.1-12.3c6.2,5.3,15.6,9.1,21.9,9.1c4.6,0,7.6-1.7,7.6-4.9c0-10.2-31.7-4-31.7-25.4
			c0-11.3,9.6-18.4,24.1-18.4c8.9,0,17.8,2.8,24.1,6.8l-5.9,12.5C313.1,541.5,305,538.7,300,538.7z"/>
		<path class="st13" d="M384.6,563.8c0,14.2-8.4,23.6-21.3,23.6c-5.9,0-10.8-2.3-14-6.5v22.7h-15.3v-63.2h15.3v6
			c3.3-4.2,7.9-6.5,13.7-6.5C375.9,539.8,384.6,549.3,384.6,563.8z M369.2,563.4c0-6.9-4-11.6-10.1-11.6c-5.9,0-9.9,4.7-9.9,11.6
			c0,6.9,4,11.5,9.9,11.5C365.2,575,369.2,570.3,369.2,563.4z"/>
		<path class="st13" d="M439.4,540.3v46.5h-15.3V581c-3.2,4.1-7.9,6.5-13.7,6.5c-13.1,0-21.7-9.6-21.7-24.1
			c0-14.2,8.4-23.6,21.3-23.6c5.9-0.1,10.8,2.3,14.1,6.5v-6H439.4z M424.1,565.3v-3.1c-0.6-6.1-4.4-10.1-9.9-10.1
			c-6,0-10.1,4.7-10.1,11.6c0,6.9,4,11.6,10.1,11.6C419.7,575.4,423.5,571.3,424.1,565.3z"/>
		<path class="st13" d="M481.4,539.7v14c-8.5-0.9-14.2,2.9-15,9.4v23.7h-15.3v-46.5h15.3v7.7C469.6,542.7,474.9,539.7,481.4,539.7z"
			/>
		<path class="st13" d="M508.6,569.3l-4.7,4.9v12.6h-15.3V523h15.3v33l14.9-15.7h17.4l-17,18l17.4,28.6h-18.1L508.6,569.3z"/>
	</g>
</g>
</svg>
